<?xml version="1.0" standalone="no"?>
<!DOCTYPE svg PUBLIC "-//W3C//DTD SVG 20010904//EN"
 "http://www.w3.org/TR/2001/REC-SVG-20010904/DTD/svg10.dtd">
<svg version="1.0" xmlns="http://www.w3.org/2000/svg"
 width="256.000000pt" height="256.000000pt" viewBox="0 0 256.000000 256.000000"
 preserveAspectRatio="xMidYMid meet">
<metadata>
Created by potrace 1.11, written by Peter Selinger 2001-2013
</metadata>
<g transform="translate(0.000000,256.000000) scale(0.100000,-0.100000)"
fill="#000000" stroke="none">
<path d="M615 2510 c-4 -6 5 -31 20 -56 15 -25 25 -47 23 -49 -1 -1 -28 -15
-58 -30 -155 -78 -275 -197 -357 -353 -25 -48 -45 -72 -71 -87 -20 -11 -47
-36 -59 -54 -13 -19 -36 -42 -52 -52 -56 -34 -61 -50 -61 -206 l0 -143 44 -43
c24 -23 47 -52 50 -64 17 -54 80 -103 141 -109 64 -6 108 15 160 77 l21 24
852 0 852 0 30 -33 c86 -94 232 -75 282 38 7 16 27 35 50 45 71 31 78 49 78
211 0 137 -1 144 -25 172 -14 16 -43 37 -65 46 -22 9 -40 20 -40 24 0 5 -15
24 -34 43 -19 19 -46 60 -59 91 -75 168 -219 313 -388 389 l-49 22 26 44 c14
24 22 48 19 53 -12 20 -32 9 -54 -30 -28 -51 -32 -52 -78 -36 -117 41 -275 60
-498 60 -274 0 -462 -24 -595 -78 -11 -5 -24 8 -45 44 -28 49 -47 61 -60 40z
m975 -125 c87 -16 210 -47 210 -53 0 -5 -58 -112 -66 -121 -1 -1 -45 11 -96
28 -135 45 -239 59 -386 56 -70 -2 -138 -6 -152 -9 -101 -22 -133 -31 -193
-52 -38 -13 -72 -24 -76 -24 -7 0 -49 67 -63 102 -11 27 63 47 312 81 42 6
473 0 510 -8z m438 -167 c30 -22 67 -54 84 -71 56 -59 144 -201 120 -195 -13
4 -71 -31 -80 -48 -8 -14 -25 0 -103 78 -84 84 -154 137 -249 190 l-31 18 20
29 c12 16 21 32 21 36 0 4 9 20 21 36 l20 29 62 -31 c34 -17 86 -49 115 -71z
m-1274 30 l34 -61 -36 -20 c-110 -59 -239 -167 -308 -257 -38 -50 -38 -50 -52
-27 -8 12 -27 32 -43 43 l-29 20 38 64 c45 79 147 184 225 234 53 33 112 63
129 65 4 1 22 -27 42 -61z m104 -382 c72 -71 -12 -190 -106 -151 -69 30 -75
125 -9 165 39 24 83 18 115 -14z m958 15 c31 -19 53 -61 49 -92 -9 -56 -73
-95 -127 -77 -82 28 -85 145 -3 179 31 12 48 10 81 -10z"/>
<path d="M1415 1310 c-55 -22 -105 -136 -131 -295 -3 -22 -8 -43 -10 -46 -1
-3 -8 -34 -13 -70 -6 -35 -13 -73 -15 -84 -2 -11 -7 -40 -11 -65 -25 -154 -56
-328 -77 -433 -11 -59 -24 -107 -28 -107 -6 0 -21 54 -35 130 -3 14 -9 48 -15
75 -10 53 -17 88 -26 144 -3 18 -8 43 -10 55 -2 11 -9 48 -15 81 -73 406 -112
511 -199 530 -37 8 -85 -17 -111 -58 -33 -55 -84 -234 -150 -532 -24 -109 -49
-194 -64 -217 -9 -14 -20 7 -64 120 -69 178 -112 255 -159 287 -69 47 -128 31
-226 -63 l-56 -53 0 -70 0 -71 33 7 c37 8 80 38 132 93 l35 37 20 -25 c11 -14
42 -81 69 -150 99 -253 128 -296 204 -307 48 -6 95 30 129 99 28 58 81 250
138 501 17 76 37 152 44 168 12 29 13 27 34 -68 12 -54 24 -114 27 -133 3 -19
8 -42 10 -50 2 -8 7 -31 10 -50 59 -349 112 -585 152 -663 13 -26 16 -27 94
-27 l80 0 20 46 c27 59 64 208 89 353 11 64 22 127 25 141 2 13 7 40 10 60 3
20 8 47 10 60 3 14 8 45 11 70 3 25 9 61 14 80 5 19 12 55 15 80 4 25 8 50 9
55 2 6 9 38 16 72 7 35 16 61 20 58 6 -4 14 -38 36 -150 2 -11 8 -42 14 -70 5
-27 12 -66 15 -85 8 -48 14 -80 20 -110 3 -14 8 -41 11 -60 3 -19 19 -100 35
-180 65 -320 121 -403 236 -348 52 25 107 184 178 518 21 98 76 290 84 290 3
0 34 -72 69 -159 35 -88 77 -180 94 -206 31 -46 89 -85 128 -85 38 0 88 28
139 77 l51 49 0 77 c0 52 -4 77 -12 77 -21 0 -93 -49 -133 -90 l-39 -42 -17
21 c-10 12 -40 79 -68 150 -62 156 -79 195 -109 244 -50 79 -138 89 -194 23
-42 -50 -113 -275 -152 -479 -10 -55 -59 -243 -66 -256 -6 -11 -9 -10 -13 5
-12 43 -57 261 -72 349 -2 17 -14 80 -25 140 -12 61 -25 135 -31 165 -17 99
-58 251 -80 297 -31 65 -85 94 -134 73z"/>
</g>
</svg>
